<svg width="26" height="26" viewBox="0 0 26 26" fill="none" xmlns="http://www.w3.org/2000/svg">
<rect x="1" y="1" width="24" height="24" rx="12" fill="white"/>
<path d="M9.222 18V8.9H12.966C13.772 8.9 14.461 9.03 15.033 9.29C15.6137 9.55 16.06 9.92267 16.372 10.408C16.684 10.8933 16.84 11.4697 16.84 12.137C16.84 12.8043 16.684 13.3807 16.372 13.866C16.06 14.3513 15.6137 14.724 15.033 14.984C14.461 15.244 13.772 15.374 12.966 15.374H10.158L10.912 14.581V18H9.222ZM10.912 14.763L10.158 13.944H12.888C13.6333 13.944 14.1923 13.788 14.565 13.476C14.9463 13.1553 15.137 12.709 15.137 12.137C15.137 11.5563 14.9463 11.11 14.565 10.798C14.1923 10.486 13.6333 10.33 12.888 10.33H10.158L10.912 9.498V14.763Z" fill="#333333"/>
<rect x="0.5" y="0.5" width="25" height="25" rx="12.5" stroke="#C4C4C4" stroke-opacity="0.5"/>
</svg>
