<svg width="16" height="16" viewBox="0 0 16 16" fill="none" xmlns="http://www.w3.org/2000/svg">
<path fill-rule="evenodd" clip-rule="evenodd" d="M9.5062 4.98531L3.48147 11.0101C3.34394 11.1476 3.26668 11.3341 3.26668 11.5286V12.6667C3.26668 12.7035 3.29653 12.7333 3.33335 12.7333H4.47142C4.66591 12.7333 4.85244 12.6561 4.98996 12.5186L11.0147 6.49381L9.5062 4.98531ZM10.3547 4.13679L11.8632 5.64528L12.6175 4.89103C12.7737 4.73482 12.7737 4.48156 12.6175 4.32535L11.6747 3.38254C11.5185 3.22633 11.2652 3.22633 11.109 3.38254L10.3547 4.13679ZM2.63294 10.1615L10.2604 2.53401C10.8853 1.90917 11.8984 1.90917 12.5232 2.53401L13.466 3.47682C14.0908 4.10166 14.0908 5.11472 13.466 5.73956L5.83849 13.3671C5.47592 13.7297 4.98417 13.9333 4.47142 13.9333L3.33335 13.9333C2.63379 13.9333 2.06668 13.3662 2.06668 12.6667L2.06668 11.5286C2.06668 11.0159 2.27037 10.5241 2.63294 10.1615Z" fill="#C4C4C4"/>
</svg>
