<svg width="24" height="24" viewBox="0 0 24 24" fill="none" xmlns="http://www.w3.org/2000/svg">
<rect width="24" height="24" rx="12" fill="#00B1B1"/>
<path d="M8.222 17V7.9H11.966C12.772 7.9 13.461 8.03 14.033 8.29C14.6137 8.55 15.06 8.92267 15.372 9.408C15.684 9.89333 15.84 10.4697 15.84 11.137C15.84 11.8043 15.684 12.3807 15.372 12.866C15.06 13.3513 14.6137 13.724 14.033 13.984C13.461 14.244 12.772 14.374 11.966 14.374H9.158L9.912 13.581V17H8.222ZM9.912 13.763L9.158 12.944H11.888C12.6333 12.944 13.1923 12.788 13.565 12.476C13.9463 12.1553 14.137 11.709 14.137 11.137C14.137 10.5563 13.9463 10.11 13.565 9.798C13.1923 9.486 12.6333 9.33 11.888 9.33H9.158L9.912 8.498V13.763Z" fill="white"/>
</svg>
